<svg xmlns="http://www.w3.org/2000/svg" viewBox="0 0 900 260" role="img" aria-labelledby="title desc">
  <title id="title">Salve Comida logo</title>
  <desc id="desc">Logo horizontal da marca Salve Comida</desc>
  <g transform="translate(20,0) scale(0.92)">

  <title id="title">Salve Comida icon</title>
  <desc id="desc">Heart, hand and food donation symbol</desc>
  <g fill="none" stroke="#2E8B57" stroke-width="14" stroke-linecap="round" stroke-linejoin="round">
    <path d="M150 226 C92 184 43 148 41 92 C39 45 91 30 124 63 C133 72 142 83 150 96 C158 83 167 72 176 63 C209 30 261 45 259 92 C257 148 208 184 150 226 Z"/>
  </g>
  
      <g fill="#2E8B57">
        <rect x="105" y="112" width="90" height="38" rx="9"/>
        <circle cx="128" cy="100" r="14"/>
        <path d="M151 102c12-24 30-30 39-33-3 18-16 35-35 43z"/>
        <path d="M126 93c-14-18-31-21-41-21 5 17 20 28 38 31z"/>
        <path d="M116 78c4-13 10-23 18-29 4 14 1 27-10 38z"/>
        <path d="M158 78c5-14 14-23 27-30-2 17-12 30-27 41z"/>
        <path d="M120 72c-6-9-6-19 0-28 9 8 11 19 3 31z"/>
      </g>
  <g fill="#2E8B57">
    <path d="M55 158c30-24 76-24 110-5 16 9 36 8 56-6l20-14-11 28c-14 31-52 45-98 33-25-7-53-8-82 5z"/>
    <path d="M63 165c31 2 68 11 101 26 20 9 48 5 75-15-22 31-62 43-103 30-37-12-68-12-98 1z" opacity="0.92"/>
  </g>

  </g>
  <text x="315" y="114" font-family="Montserrat, Poppins, Arial, sans-serif" font-size="66" font-weight="800" fill="#4F4F4F">Salve Comida</text>
  <text x="318" y="160" font-family="Poppins, Arial, sans-serif" font-size="25" font-weight="400" fill="#4F4F4F" opacity="0.9">Compartilhe mais, desperdice menos</text>
</svg>