<svg xmlns="http://www.w3.org/2000/svg" viewBox="0 0 96 96" role="img" aria-labelledby="title desc">
  <title id="title">Cadastre a doação</title>
  <desc id="desc">Ícone de formulário com alimentos para representar cadastro de doação.</desc>
  <g fill="none" stroke="#0F7A3A" stroke-width="4" stroke-linecap="round" stroke-linejoin="round">
    <rect x="24" y="14" width="44" height="66" rx="6"/>
    <path d="M36 14h20v-2a6 6 0 0 0-12 0v2"/>
    <rect x="34" y="26" width="20" height="16" rx="3"/>
    <path d="M42 37c-4 0-6-4-5-8 3 0 5 2 5 5 1-5 4-8 9-8 1 6-3 11-9 11z" fill="#0F7A3A" stroke="none"/>
    <path d="M60 30h16M60 38h12M34 52h34M34 62h26M34 72h18"/>
    <circle cx="28" cy="76" r="7" fill="#0F7A3A" stroke="none"/>
    <path d="m24.5 76 2.5 2.5 5-6" stroke="#fff" stroke-width="3"/>
    <path d="M65 62h15v16H54V66c0-2 2-4 4-4h7z" fill="#A7D68A" stroke="none"/>
    <path d="M58 62c2-7 7-11 14-12 2 7-4 12-14 12z" fill="#0F7A3A" stroke="none"/>
    <path d="M73 62c1-6 5-9 11-9 1 6-3 9-11 9z" fill="#0F7A3A" stroke="none"/>
  </g>
</svg>
