<svg xmlns="http://www.w3.org/2000/svg" viewBox="0 0 96 96" role="img" aria-labelledby="title desc">
  <title id="title">Solicite o alimento</title>
  <desc id="desc">Ícone de usuário solicitando alimento com controle de quantidade e envio.</desc>
  <g fill="none" stroke="#0F7A3A" stroke-width="4" stroke-linecap="round" stroke-linejoin="round">
    <circle cx="24" cy="44" r="10" fill="#A7D68A"/>
    <path d="M10 76c2-13 9-20 14-20s12 7 14 20H10z" fill="#A7D68A"/>
    <rect x="34" y="16" width="44" height="58" rx="6"/>
    <circle cx="56" cy="30" r="12" fill="#A7D68A" stroke="none"/>
    <path d="M48 32h16v8H48z" fill="#0F7A3A" stroke="none"/>
    <path d="M51 32c1-5 4-8 8-9M62 32c1-4 3-6 7-7"/>
    <path d="M45 50h22M45 57h14"/>
    <rect x="43" y="64" width="30" height="10" rx="3" fill="#A7D68A"/>
    <path d="M48 69h4M58 66v6M64 66v6M69 67v4"/>
    <path d="M72 48h12l-6-6M84 48l-6 6" fill="none"/>
    <path d="M34 72c-6 0-9-4-9-9v-8M25 55l-5 5" stroke-width="5"/>
  </g>
</svg>
