<svg xmlns="http://www.w3.org/2000/svg" viewBox="0 0 96 96" role="img" aria-labelledby="title desc">
  <title id="title">Combine a retirada</title>
  <desc id="desc">Ícone de aperto de mãos com local de retirada, caixa e sacola.</desc>
  <g fill="none" stroke="#0F7A3A" stroke-width="4" stroke-linecap="round" stroke-linejoin="round">
    <path d="M23 25h18l6 7v20H23z" fill="#A7D68A"/>
    <path d="M23 25l8 8h16M32 25v8"/>
    <path d="M67 30h16v22H63V34c0-2 2-4 4-4z" fill="#A7D68A"/>
    <path d="M68 30c0-7 10-7 10 0"/>
    <path d="M58 16c0 8-9 17-9 17s-9-9-9-17a9 9 0 1 1 18 0z" fill="#0F7A3A" stroke="none"/>
    <circle cx="49" cy="16" r="3" fill="#fff" stroke="none"/>
    <path d="M22 68l14-14c3-3 8-3 11 0l3 3"/>
    <path d="M74 68 60 54c-3-3-8-3-11 0l-10 10 6 6c3 3 8 3 11 0l4-4" fill="#A7D68A"/>
    <path d="M33 57 21 69M63 57l12 12"/>
    <path d="M40 76h24"/>
    <path d="M30 38c10-8 26-8 38 0" stroke-dasharray="4 7"/>
  </g>
</svg>
